<mxfile host="app.diagrams.net" modified="2023-04-15T14:51:15.376Z" agent="Mozilla/5.0 (Windows NT 10.0; Win64; x64; rv:109.0) Gecko/20100101 Firefox/112.0" etag="QHerCe2zYAbYG4T8QWAj" version="21.1.8" type="github">
  <diagram name="Page-1" id="03018318-947c-dd8e-b7a3-06fadd420f32">
    <mxGraphModel dx="1912" dy="1005" grid="1" gridSize="10" guides="1" tooltips="1" connect="1" arrows="1" fold="1" page="1" pageScale="1" pageWidth="1100" pageHeight="850" background="none" math="0" shadow="0">
      <root>
        <mxCell id="0" />
        <mxCell id="1" parent="0" />
        <mxCell id="u8-QzK9I8CVxJScZZYZj-1" value="FOOTER" style="rounded=0;whiteSpace=wrap;html=1;resizeWidth=0;" vertex="1" parent="1">
          <mxGeometry x="10" y="767" width="1080" height="60" as="geometry" />
        </mxCell>
        <mxCell id="u8-QzK9I8CVxJScZZYZj-2" value="" style="rounded=0;whiteSpace=wrap;html=1;fillColor=#f5f5f5;fontColor=#333333;strokeColor=#666666;" vertex="1" parent="1">
          <mxGeometry x="10" width="1080" height="90" as="geometry" />
        </mxCell>
        <mxCell id="u8-QzK9I8CVxJScZZYZj-3" value="&lt;div align=&quot;center&quot;&gt;Filtrer affichages&lt;/div&gt;" style="shape=partialRectangle;whiteSpace=wrap;html=1;bottom=0;top=0;fillColor=none;align=center;" vertex="1" parent="1">
          <mxGeometry x="250" y="20" width="130" height="50" as="geometry" />
        </mxCell>
        <mxCell id="u8-QzK9I8CVxJScZZYZj-4" value="Formulaires" style="shape=partialRectangle;whiteSpace=wrap;html=1;bottom=0;top=0;fillColor=none;" vertex="1" parent="1">
          <mxGeometry x="380" y="20" width="130" height="50" as="geometry" />
        </mxCell>
        <mxCell id="u8-QzK9I8CVxJScZZYZj-5" value="Modifications" style="shape=partialRectangle;whiteSpace=wrap;html=1;bottom=0;top=0;fillColor=none;" vertex="1" parent="1">
          <mxGeometry x="510" y="20" width="130" height="50" as="geometry" />
        </mxCell>
        <mxCell id="u8-QzK9I8CVxJScZZYZj-6" value="&lt;p style=&quot;line-height: 120%;&quot;&gt;Accueil&lt;/p&gt;" style="shape=partialRectangle;whiteSpace=wrap;html=1;bottom=0;top=0;fillColor=none;" vertex="1" parent="1">
          <mxGeometry x="115" y="20" width="135" height="50" as="geometry" />
        </mxCell>
        <mxCell id="u8-QzK9I8CVxJScZZYZj-12" value="" style="triangle;whiteSpace=wrap;html=1;rotation=90;" vertex="1" parent="1">
          <mxGeometry x="360" y="50" width="10" height="20" as="geometry" />
        </mxCell>
        <mxCell id="u8-QzK9I8CVxJScZZYZj-13" value="" style="triangle;whiteSpace=wrap;html=1;rotation=90;" vertex="1" parent="1">
          <mxGeometry x="490" y="50" width="10" height="20" as="geometry" />
        </mxCell>
        <mxCell id="u8-QzK9I8CVxJScZZYZj-15" value="&lt;div style=&quot;font-size: 13px; line-height: 190%;&quot; align=&quot;left&quot;&gt;&lt;ul style=&quot;font-size: 13px; line-height: 190%;&quot;&gt;&lt;li style=&quot;font-size: 13px;&quot;&gt;Action (18)&lt;/li&gt;&lt;li style=&quot;font-size: 13px;&quot;&gt;Aventure(35)&lt;/li&gt;&lt;li style=&quot;font-size: 13px;&quot;&gt;Comédie(12)&lt;/li&gt;&lt;li style=&quot;font-size: 13px;&quot;&gt;Comédie Dramatique (8)&lt;br style=&quot;font-size: 13px;&quot;&gt;&lt;/li&gt;&lt;li style=&quot;font-size: 13px;&quot;&gt;Drame (25)&lt;/li&gt;&lt;li style=&quot;font-size: 13px;&quot;&gt;etc.&lt;/li&gt;&lt;li style=&quot;font-size: 13px;&quot;&gt;&amp;nbsp;&lt;/li&gt;&lt;li style=&quot;font-size: 13px;&quot;&gt;&amp;nbsp;&lt;/li&gt;&lt;li style=&quot;font-size: 13px;&quot;&gt;&amp;nbsp;&lt;/li&gt;&lt;li style=&quot;font-size: 13px;&quot;&gt;&amp;nbsp;&lt;/li&gt;&lt;li style=&quot;font-size: 13px;&quot;&gt;&amp;nbsp;&lt;/li&gt;&lt;li style=&quot;font-size: 13px;&quot;&gt;&amp;nbsp;&lt;/li&gt;&lt;li style=&quot;font-size: 13px;&quot;&gt;&amp;nbsp;&lt;/li&gt;&lt;li style=&quot;font-size: 13px;&quot;&gt;&lt;br style=&quot;font-size: 13px;&quot;&gt;&lt;/li&gt;&lt;/ul&gt;&lt;/div&gt;&lt;blockquote style=&quot;font-size: 13px;&quot;&gt;&lt;div style=&quot;font-size: 13px;&quot; align=&quot;left&quot;&gt;&lt;br style=&quot;font-size: 13px;&quot;&gt;&lt;/div&gt;&lt;/blockquote&gt;" style="rounded=0;html=1;spacingLeft=-13;spacing=0;whiteSpace=wrap;verticalAlign=middle;fontSize=13;textDirection=ltr;spacingBottom=0;" vertex="1" parent="1">
          <mxGeometry x="115" y="130" width="120" height="410" as="geometry" />
        </mxCell>
        <mxCell id="u8-QzK9I8CVxJScZZYZj-16" value="" style="shape=table;startSize=0;container=1;collapsible=0;childLayout=tableLayout;fontSize=16;columnLines=0;rowLines=1;" vertex="1" parent="1">
          <mxGeometry x="260" y="130" width="780" height="548" as="geometry" />
        </mxCell>
        <mxCell id="u8-QzK9I8CVxJScZZYZj-17" value="" style="shape=tableRow;horizontal=0;startSize=0;swimlaneHead=0;swimlaneBody=0;strokeColor=inherit;top=0;left=0;bottom=0;right=0;collapsible=0;dropTarget=0;fillColor=none;points=[[0,0.5],[1,0.5]];portConstraint=eastwest;fontSize=16;" vertex="1" parent="u8-QzK9I8CVxJScZZYZj-16">
          <mxGeometry width="780" height="36" as="geometry" />
        </mxCell>
        <mxCell id="u8-QzK9I8CVxJScZZYZj-18" value="Titre&amp;nbsp;" style="shape=partialRectangle;html=1;whiteSpace=wrap;connectable=0;strokeColor=inherit;overflow=hidden;fillColor=none;top=0;left=0;bottom=0;right=0;pointerEvents=1;fontSize=16;strokeWidth=0;" vertex="1" parent="u8-QzK9I8CVxJScZZYZj-17">
          <mxGeometry width="294" height="36" as="geometry">
            <mxRectangle width="294" height="36" as="alternateBounds" />
          </mxGeometry>
        </mxCell>
        <mxCell id="u8-QzK9I8CVxJScZZYZj-19" value="Année" style="shape=partialRectangle;html=1;whiteSpace=wrap;connectable=0;strokeColor=inherit;overflow=hidden;fillColor=none;top=0;left=0;bottom=0;right=0;pointerEvents=1;fontSize=16;" vertex="1" parent="u8-QzK9I8CVxJScZZYZj-17">
          <mxGeometry x="294" width="140" height="36" as="geometry">
            <mxRectangle width="140" height="36" as="alternateBounds" />
          </mxGeometry>
        </mxCell>
        <mxCell id="u8-QzK9I8CVxJScZZYZj-20" value="Réalisateur" style="shape=partialRectangle;html=1;whiteSpace=wrap;connectable=0;strokeColor=inherit;overflow=hidden;fillColor=none;top=0;left=0;bottom=0;right=0;pointerEvents=1;fontSize=16;" vertex="1" parent="u8-QzK9I8CVxJScZZYZj-17">
          <mxGeometry x="434" width="177" height="36" as="geometry">
            <mxRectangle width="177" height="36" as="alternateBounds" />
          </mxGeometry>
        </mxCell>
        <mxCell id="u8-QzK9I8CVxJScZZYZj-21" value="note" style="shape=partialRectangle;html=1;whiteSpace=wrap;connectable=0;strokeColor=inherit;overflow=hidden;fillColor=none;top=0;left=0;bottom=0;right=0;pointerEvents=1;fontSize=16;" vertex="1" parent="u8-QzK9I8CVxJScZZYZj-17">
          <mxGeometry x="611" width="169" height="36" as="geometry">
            <mxRectangle width="169" height="36" as="alternateBounds" />
          </mxGeometry>
        </mxCell>
        <mxCell id="u8-QzK9I8CVxJScZZYZj-22" value="" style="shape=tableRow;horizontal=0;startSize=0;swimlaneHead=0;swimlaneBody=0;strokeColor=inherit;top=0;left=0;bottom=0;right=0;collapsible=0;dropTarget=0;fillColor=none;points=[[0,0.5],[1,0.5]];portConstraint=eastwest;fontSize=16;" vertex="1" parent="u8-QzK9I8CVxJScZZYZj-16">
          <mxGeometry y="36" width="780" height="38" as="geometry" />
        </mxCell>
        <mxCell id="u8-QzK9I8CVxJScZZYZj-23" value="" style="shape=partialRectangle;html=1;whiteSpace=wrap;connectable=0;overflow=hidden;top=0;left=0;bottom=0;right=0;pointerEvents=1;fontSize=16;strokeWidth=0;fillColor=none;strokeColor=inherit;" vertex="1" parent="u8-QzK9I8CVxJScZZYZj-22">
          <mxGeometry width="294" height="38" as="geometry">
            <mxRectangle width="294" height="38" as="alternateBounds" />
          </mxGeometry>
        </mxCell>
        <mxCell id="u8-QzK9I8CVxJScZZYZj-24" value="" style="shape=partialRectangle;html=1;whiteSpace=wrap;connectable=0;strokeColor=inherit;overflow=hidden;fillColor=none;top=0;left=0;bottom=0;right=0;pointerEvents=1;fontSize=16;" vertex="1" parent="u8-QzK9I8CVxJScZZYZj-22">
          <mxGeometry x="294" width="140" height="38" as="geometry">
            <mxRectangle width="140" height="38" as="alternateBounds" />
          </mxGeometry>
        </mxCell>
        <mxCell id="u8-QzK9I8CVxJScZZYZj-25" value="" style="shape=partialRectangle;html=1;whiteSpace=wrap;connectable=0;strokeColor=inherit;overflow=hidden;fillColor=none;top=0;left=0;bottom=0;right=0;pointerEvents=1;fontSize=16;" vertex="1" parent="u8-QzK9I8CVxJScZZYZj-22">
          <mxGeometry x="434" width="177" height="38" as="geometry">
            <mxRectangle width="177" height="38" as="alternateBounds" />
          </mxGeometry>
        </mxCell>
        <mxCell id="u8-QzK9I8CVxJScZZYZj-26" style="shape=partialRectangle;html=1;whiteSpace=wrap;connectable=0;strokeColor=inherit;overflow=hidden;fillColor=none;top=0;left=0;bottom=0;right=0;pointerEvents=1;fontSize=16;" vertex="1" parent="u8-QzK9I8CVxJScZZYZj-22">
          <mxGeometry x="611" width="169" height="38" as="geometry">
            <mxRectangle width="169" height="38" as="alternateBounds" />
          </mxGeometry>
        </mxCell>
        <mxCell id="u8-QzK9I8CVxJScZZYZj-27" value="" style="shape=tableRow;horizontal=0;startSize=0;swimlaneHead=0;swimlaneBody=0;strokeColor=inherit;top=0;left=0;bottom=0;right=0;collapsible=0;dropTarget=0;fillColor=none;points=[[0,0.5],[1,0.5]];portConstraint=eastwest;fontSize=16;" vertex="1" parent="u8-QzK9I8CVxJScZZYZj-16">
          <mxGeometry y="74" width="780" height="44" as="geometry" />
        </mxCell>
        <mxCell id="u8-QzK9I8CVxJScZZYZj-28" value="" style="shape=partialRectangle;html=1;whiteSpace=wrap;connectable=0;overflow=hidden;top=0;left=0;bottom=0;right=0;pointerEvents=1;fontSize=16;strokeWidth=0;fillColor=#f5f5f5;strokeColor=#666666;fontColor=#333333;" vertex="1" parent="u8-QzK9I8CVxJScZZYZj-27">
          <mxGeometry width="294" height="44" as="geometry">
            <mxRectangle width="294" height="44" as="alternateBounds" />
          </mxGeometry>
        </mxCell>
        <mxCell id="u8-QzK9I8CVxJScZZYZj-29" value="" style="shape=partialRectangle;html=1;whiteSpace=wrap;connectable=0;strokeColor=#666666;overflow=hidden;fillColor=#f5f5f5;top=0;left=0;bottom=0;right=0;pointerEvents=1;fontSize=16;fontColor=#333333;" vertex="1" parent="u8-QzK9I8CVxJScZZYZj-27">
          <mxGeometry x="294" width="140" height="44" as="geometry">
            <mxRectangle width="140" height="44" as="alternateBounds" />
          </mxGeometry>
        </mxCell>
        <mxCell id="u8-QzK9I8CVxJScZZYZj-30" value="" style="shape=partialRectangle;html=1;whiteSpace=wrap;connectable=0;strokeColor=#666666;overflow=hidden;fillColor=#f5f5f5;top=0;left=0;bottom=0;right=0;pointerEvents=1;fontSize=16;fontColor=#333333;" vertex="1" parent="u8-QzK9I8CVxJScZZYZj-27">
          <mxGeometry x="434" width="177" height="44" as="geometry">
            <mxRectangle width="177" height="44" as="alternateBounds" />
          </mxGeometry>
        </mxCell>
        <mxCell id="u8-QzK9I8CVxJScZZYZj-31" style="shape=partialRectangle;html=1;whiteSpace=wrap;connectable=0;strokeColor=#666666;overflow=hidden;fillColor=#f5f5f5;top=0;left=0;bottom=0;right=0;pointerEvents=1;fontSize=16;fontColor=#333333;" vertex="1" parent="u8-QzK9I8CVxJScZZYZj-27">
          <mxGeometry x="611" width="169" height="44" as="geometry">
            <mxRectangle width="169" height="44" as="alternateBounds" />
          </mxGeometry>
        </mxCell>
        <mxCell id="u8-QzK9I8CVxJScZZYZj-32" style="shape=tableRow;horizontal=0;startSize=0;swimlaneHead=0;swimlaneBody=0;strokeColor=inherit;top=0;left=0;bottom=0;right=0;collapsible=0;dropTarget=0;fillColor=none;points=[[0,0.5],[1,0.5]];portConstraint=eastwest;fontSize=16;" vertex="1" parent="u8-QzK9I8CVxJScZZYZj-16">
          <mxGeometry y="118" width="780" height="43" as="geometry" />
        </mxCell>
        <mxCell id="u8-QzK9I8CVxJScZZYZj-33" style="shape=partialRectangle;html=1;whiteSpace=wrap;connectable=0;overflow=hidden;top=0;left=0;bottom=0;right=0;pointerEvents=1;fontSize=16;strokeWidth=0;fillColor=none;strokeColor=inherit;" vertex="1" parent="u8-QzK9I8CVxJScZZYZj-32">
          <mxGeometry width="294" height="43" as="geometry">
            <mxRectangle width="294" height="43" as="alternateBounds" />
          </mxGeometry>
        </mxCell>
        <mxCell id="u8-QzK9I8CVxJScZZYZj-34" style="shape=partialRectangle;html=1;whiteSpace=wrap;connectable=0;strokeColor=inherit;overflow=hidden;fillColor=none;top=0;left=0;bottom=0;right=0;pointerEvents=1;fontSize=16;" vertex="1" parent="u8-QzK9I8CVxJScZZYZj-32">
          <mxGeometry x="294" width="140" height="43" as="geometry">
            <mxRectangle width="140" height="43" as="alternateBounds" />
          </mxGeometry>
        </mxCell>
        <mxCell id="u8-QzK9I8CVxJScZZYZj-35" style="shape=partialRectangle;html=1;whiteSpace=wrap;connectable=0;strokeColor=inherit;overflow=hidden;fillColor=none;top=0;left=0;bottom=0;right=0;pointerEvents=1;fontSize=16;" vertex="1" parent="u8-QzK9I8CVxJScZZYZj-32">
          <mxGeometry x="434" width="177" height="43" as="geometry">
            <mxRectangle width="177" height="43" as="alternateBounds" />
          </mxGeometry>
        </mxCell>
        <mxCell id="u8-QzK9I8CVxJScZZYZj-36" style="shape=partialRectangle;html=1;whiteSpace=wrap;connectable=0;strokeColor=inherit;overflow=hidden;fillColor=none;top=0;left=0;bottom=0;right=0;pointerEvents=1;fontSize=16;" vertex="1" parent="u8-QzK9I8CVxJScZZYZj-32">
          <mxGeometry x="611" width="169" height="43" as="geometry">
            <mxRectangle width="169" height="43" as="alternateBounds" />
          </mxGeometry>
        </mxCell>
        <mxCell id="u8-QzK9I8CVxJScZZYZj-37" style="shape=tableRow;horizontal=0;startSize=0;swimlaneHead=0;swimlaneBody=0;strokeColor=inherit;top=0;left=0;bottom=0;right=0;collapsible=0;dropTarget=0;fillColor=none;points=[[0,0.5],[1,0.5]];portConstraint=eastwest;fontSize=16;" vertex="1" parent="u8-QzK9I8CVxJScZZYZj-16">
          <mxGeometry y="161" width="780" height="41" as="geometry" />
        </mxCell>
        <mxCell id="u8-QzK9I8CVxJScZZYZj-38" style="shape=partialRectangle;html=1;whiteSpace=wrap;connectable=0;overflow=hidden;top=0;left=0;bottom=0;right=0;pointerEvents=1;fontSize=16;strokeWidth=0;fillColor=#f5f5f5;strokeColor=#666666;fontColor=#333333;" vertex="1" parent="u8-QzK9I8CVxJScZZYZj-37">
          <mxGeometry width="294" height="41" as="geometry">
            <mxRectangle width="294" height="41" as="alternateBounds" />
          </mxGeometry>
        </mxCell>
        <mxCell id="u8-QzK9I8CVxJScZZYZj-39" style="shape=partialRectangle;html=1;whiteSpace=wrap;connectable=0;strokeColor=#666666;overflow=hidden;fillColor=#f5f5f5;top=0;left=0;bottom=0;right=0;pointerEvents=1;fontSize=16;fontColor=#333333;" vertex="1" parent="u8-QzK9I8CVxJScZZYZj-37">
          <mxGeometry x="294" width="140" height="41" as="geometry">
            <mxRectangle width="140" height="41" as="alternateBounds" />
          </mxGeometry>
        </mxCell>
        <mxCell id="u8-QzK9I8CVxJScZZYZj-40" style="shape=partialRectangle;html=1;whiteSpace=wrap;connectable=0;strokeColor=#666666;overflow=hidden;fillColor=#f5f5f5;top=0;left=0;bottom=0;right=0;pointerEvents=1;fontSize=16;fontColor=#333333;" vertex="1" parent="u8-QzK9I8CVxJScZZYZj-37">
          <mxGeometry x="434" width="177" height="41" as="geometry">
            <mxRectangle width="177" height="41" as="alternateBounds" />
          </mxGeometry>
        </mxCell>
        <mxCell id="u8-QzK9I8CVxJScZZYZj-41" style="shape=partialRectangle;html=1;whiteSpace=wrap;connectable=0;strokeColor=#666666;overflow=hidden;fillColor=#f5f5f5;top=0;left=0;bottom=0;right=0;pointerEvents=1;fontSize=16;fontColor=#333333;" vertex="1" parent="u8-QzK9I8CVxJScZZYZj-37">
          <mxGeometry x="611" width="169" height="41" as="geometry">
            <mxRectangle width="169" height="41" as="alternateBounds" />
          </mxGeometry>
        </mxCell>
        <mxCell id="u8-QzK9I8CVxJScZZYZj-77" style="shape=tableRow;horizontal=0;startSize=0;swimlaneHead=0;swimlaneBody=0;strokeColor=inherit;top=0;left=0;bottom=0;right=0;collapsible=0;dropTarget=0;fillColor=none;points=[[0,0.5],[1,0.5]];portConstraint=eastwest;fontSize=16;" vertex="1" parent="u8-QzK9I8CVxJScZZYZj-16">
          <mxGeometry y="202" width="780" height="44" as="geometry" />
        </mxCell>
        <mxCell id="u8-QzK9I8CVxJScZZYZj-78" style="shape=partialRectangle;html=1;whiteSpace=wrap;connectable=0;overflow=hidden;top=0;left=0;bottom=0;right=0;pointerEvents=1;fontSize=16;strokeWidth=0;fillColor=none;strokeColor=inherit;" vertex="1" parent="u8-QzK9I8CVxJScZZYZj-77">
          <mxGeometry width="294" height="44" as="geometry">
            <mxRectangle width="294" height="44" as="alternateBounds" />
          </mxGeometry>
        </mxCell>
        <mxCell id="u8-QzK9I8CVxJScZZYZj-79" style="shape=partialRectangle;html=1;whiteSpace=wrap;connectable=0;strokeColor=inherit;overflow=hidden;fillColor=none;top=0;left=0;bottom=0;right=0;pointerEvents=1;fontSize=16;" vertex="1" parent="u8-QzK9I8CVxJScZZYZj-77">
          <mxGeometry x="294" width="140" height="44" as="geometry">
            <mxRectangle width="140" height="44" as="alternateBounds" />
          </mxGeometry>
        </mxCell>
        <mxCell id="u8-QzK9I8CVxJScZZYZj-80" style="shape=partialRectangle;html=1;whiteSpace=wrap;connectable=0;strokeColor=inherit;overflow=hidden;fillColor=none;top=0;left=0;bottom=0;right=0;pointerEvents=1;fontSize=16;" vertex="1" parent="u8-QzK9I8CVxJScZZYZj-77">
          <mxGeometry x="434" width="177" height="44" as="geometry">
            <mxRectangle width="177" height="44" as="alternateBounds" />
          </mxGeometry>
        </mxCell>
        <mxCell id="u8-QzK9I8CVxJScZZYZj-81" style="shape=partialRectangle;html=1;whiteSpace=wrap;connectable=0;strokeColor=inherit;overflow=hidden;fillColor=none;top=0;left=0;bottom=0;right=0;pointerEvents=1;fontSize=16;" vertex="1" parent="u8-QzK9I8CVxJScZZYZj-77">
          <mxGeometry x="611" width="169" height="44" as="geometry">
            <mxRectangle width="169" height="44" as="alternateBounds" />
          </mxGeometry>
        </mxCell>
        <mxCell id="u8-QzK9I8CVxJScZZYZj-42" style="shape=tableRow;horizontal=0;startSize=0;swimlaneHead=0;swimlaneBody=0;strokeColor=inherit;top=0;left=0;bottom=0;right=0;collapsible=0;dropTarget=0;fillColor=none;points=[[0,0.5],[1,0.5]];portConstraint=eastwest;fontSize=16;" vertex="1" parent="u8-QzK9I8CVxJScZZYZj-16">
          <mxGeometry y="246" width="780" height="44" as="geometry" />
        </mxCell>
        <mxCell id="u8-QzK9I8CVxJScZZYZj-43" style="shape=partialRectangle;html=1;whiteSpace=wrap;connectable=0;overflow=hidden;top=0;left=0;bottom=0;right=0;pointerEvents=1;fontSize=16;strokeWidth=0;fillColor=#f5f5f5;strokeColor=#666666;fontColor=#333333;" vertex="1" parent="u8-QzK9I8CVxJScZZYZj-42">
          <mxGeometry width="294" height="44" as="geometry">
            <mxRectangle width="294" height="44" as="alternateBounds" />
          </mxGeometry>
        </mxCell>
        <mxCell id="u8-QzK9I8CVxJScZZYZj-44" style="shape=partialRectangle;html=1;whiteSpace=wrap;connectable=0;strokeColor=#666666;overflow=hidden;fillColor=#f5f5f5;top=0;left=0;bottom=0;right=0;pointerEvents=1;fontSize=16;fontColor=#333333;" vertex="1" parent="u8-QzK9I8CVxJScZZYZj-42">
          <mxGeometry x="294" width="140" height="44" as="geometry">
            <mxRectangle width="140" height="44" as="alternateBounds" />
          </mxGeometry>
        </mxCell>
        <mxCell id="u8-QzK9I8CVxJScZZYZj-45" style="shape=partialRectangle;html=1;whiteSpace=wrap;connectable=0;strokeColor=#666666;overflow=hidden;fillColor=#f5f5f5;top=0;left=0;bottom=0;right=0;pointerEvents=1;fontSize=16;fontColor=#333333;" vertex="1" parent="u8-QzK9I8CVxJScZZYZj-42">
          <mxGeometry x="434" width="177" height="44" as="geometry">
            <mxRectangle width="177" height="44" as="alternateBounds" />
          </mxGeometry>
        </mxCell>
        <mxCell id="u8-QzK9I8CVxJScZZYZj-46" style="shape=partialRectangle;html=1;whiteSpace=wrap;connectable=0;strokeColor=#666666;overflow=hidden;fillColor=#f5f5f5;top=0;left=0;bottom=0;right=0;pointerEvents=1;fontSize=16;fontColor=#333333;" vertex="1" parent="u8-QzK9I8CVxJScZZYZj-42">
          <mxGeometry x="611" width="169" height="44" as="geometry">
            <mxRectangle width="169" height="44" as="alternateBounds" />
          </mxGeometry>
        </mxCell>
        <mxCell id="u8-QzK9I8CVxJScZZYZj-72" style="shape=tableRow;horizontal=0;startSize=0;swimlaneHead=0;swimlaneBody=0;strokeColor=inherit;top=0;left=0;bottom=0;right=0;collapsible=0;dropTarget=0;fillColor=none;points=[[0,0.5],[1,0.5]];portConstraint=eastwest;fontSize=16;" vertex="1" parent="u8-QzK9I8CVxJScZZYZj-16">
          <mxGeometry y="290" width="780" height="44" as="geometry" />
        </mxCell>
        <mxCell id="u8-QzK9I8CVxJScZZYZj-73" style="shape=partialRectangle;html=1;whiteSpace=wrap;connectable=0;overflow=hidden;top=0;left=0;bottom=0;right=0;pointerEvents=1;fontSize=16;strokeWidth=0;fillColor=none;strokeColor=inherit;" vertex="1" parent="u8-QzK9I8CVxJScZZYZj-72">
          <mxGeometry width="294" height="44" as="geometry">
            <mxRectangle width="294" height="44" as="alternateBounds" />
          </mxGeometry>
        </mxCell>
        <mxCell id="u8-QzK9I8CVxJScZZYZj-74" style="shape=partialRectangle;html=1;whiteSpace=wrap;connectable=0;strokeColor=inherit;overflow=hidden;fillColor=none;top=0;left=0;bottom=0;right=0;pointerEvents=1;fontSize=16;" vertex="1" parent="u8-QzK9I8CVxJScZZYZj-72">
          <mxGeometry x="294" width="140" height="44" as="geometry">
            <mxRectangle width="140" height="44" as="alternateBounds" />
          </mxGeometry>
        </mxCell>
        <mxCell id="u8-QzK9I8CVxJScZZYZj-75" style="shape=partialRectangle;html=1;whiteSpace=wrap;connectable=0;strokeColor=inherit;overflow=hidden;fillColor=none;top=0;left=0;bottom=0;right=0;pointerEvents=1;fontSize=16;" vertex="1" parent="u8-QzK9I8CVxJScZZYZj-72">
          <mxGeometry x="434" width="177" height="44" as="geometry">
            <mxRectangle width="177" height="44" as="alternateBounds" />
          </mxGeometry>
        </mxCell>
        <mxCell id="u8-QzK9I8CVxJScZZYZj-76" style="shape=partialRectangle;html=1;whiteSpace=wrap;connectable=0;strokeColor=inherit;overflow=hidden;fillColor=none;top=0;left=0;bottom=0;right=0;pointerEvents=1;fontSize=16;strokeWidth=0;" vertex="1" parent="u8-QzK9I8CVxJScZZYZj-72">
          <mxGeometry x="611" width="169" height="44" as="geometry">
            <mxRectangle width="169" height="44" as="alternateBounds" />
          </mxGeometry>
        </mxCell>
        <mxCell id="u8-QzK9I8CVxJScZZYZj-47" style="shape=tableRow;horizontal=0;startSize=0;swimlaneHead=0;swimlaneBody=0;strokeColor=#666666;top=0;left=0;bottom=0;right=0;collapsible=0;dropTarget=0;fillColor=#f5f5f5;points=[[0,0.5],[1,0.5]];portConstraint=eastwest;fontSize=16;fontColor=#333333;" vertex="1" parent="u8-QzK9I8CVxJScZZYZj-16">
          <mxGeometry y="334" width="780" height="43" as="geometry" />
        </mxCell>
        <mxCell id="u8-QzK9I8CVxJScZZYZj-48" style="shape=partialRectangle;html=1;whiteSpace=wrap;connectable=0;overflow=hidden;top=0;left=0;bottom=0;right=0;pointerEvents=1;fontSize=16;strokeWidth=0;fillColor=none;strokeColor=inherit;" vertex="1" parent="u8-QzK9I8CVxJScZZYZj-47">
          <mxGeometry width="294" height="43" as="geometry">
            <mxRectangle width="294" height="43" as="alternateBounds" />
          </mxGeometry>
        </mxCell>
        <mxCell id="u8-QzK9I8CVxJScZZYZj-49" style="shape=partialRectangle;html=1;whiteSpace=wrap;connectable=0;strokeColor=inherit;overflow=hidden;fillColor=none;top=0;left=0;bottom=0;right=0;pointerEvents=1;fontSize=16;" vertex="1" parent="u8-QzK9I8CVxJScZZYZj-47">
          <mxGeometry x="294" width="140" height="43" as="geometry">
            <mxRectangle width="140" height="43" as="alternateBounds" />
          </mxGeometry>
        </mxCell>
        <mxCell id="u8-QzK9I8CVxJScZZYZj-50" style="shape=partialRectangle;html=1;whiteSpace=wrap;connectable=0;strokeColor=inherit;overflow=hidden;fillColor=none;top=0;left=0;bottom=0;right=0;pointerEvents=1;fontSize=16;" vertex="1" parent="u8-QzK9I8CVxJScZZYZj-47">
          <mxGeometry x="434" width="177" height="43" as="geometry">
            <mxRectangle width="177" height="43" as="alternateBounds" />
          </mxGeometry>
        </mxCell>
        <mxCell id="u8-QzK9I8CVxJScZZYZj-51" style="shape=partialRectangle;html=1;whiteSpace=wrap;connectable=0;strokeColor=inherit;overflow=hidden;fillColor=none;top=0;left=0;bottom=0;right=0;pointerEvents=1;fontSize=16;" vertex="1" parent="u8-QzK9I8CVxJScZZYZj-47">
          <mxGeometry x="611" width="169" height="43" as="geometry">
            <mxRectangle width="169" height="43" as="alternateBounds" />
          </mxGeometry>
        </mxCell>
        <mxCell id="u8-QzK9I8CVxJScZZYZj-52" style="shape=tableRow;horizontal=0;startSize=0;swimlaneHead=0;swimlaneBody=0;strokeColor=inherit;top=0;left=0;bottom=0;right=0;collapsible=0;dropTarget=0;fillColor=none;points=[[0,0.5],[1,0.5]];portConstraint=eastwest;fontSize=16;" vertex="1" parent="u8-QzK9I8CVxJScZZYZj-16">
          <mxGeometry y="377" width="780" height="43" as="geometry" />
        </mxCell>
        <mxCell id="u8-QzK9I8CVxJScZZYZj-53" style="shape=partialRectangle;html=1;whiteSpace=wrap;connectable=0;overflow=hidden;top=0;left=0;bottom=0;right=0;pointerEvents=1;fontSize=16;strokeWidth=0;fillColor=none;strokeColor=inherit;" vertex="1" parent="u8-QzK9I8CVxJScZZYZj-52">
          <mxGeometry width="294" height="43" as="geometry">
            <mxRectangle width="294" height="43" as="alternateBounds" />
          </mxGeometry>
        </mxCell>
        <mxCell id="u8-QzK9I8CVxJScZZYZj-54" style="shape=partialRectangle;html=1;whiteSpace=wrap;connectable=0;strokeColor=inherit;overflow=hidden;fillColor=none;top=0;left=0;bottom=0;right=0;pointerEvents=1;fontSize=16;" vertex="1" parent="u8-QzK9I8CVxJScZZYZj-52">
          <mxGeometry x="294" width="140" height="43" as="geometry">
            <mxRectangle width="140" height="43" as="alternateBounds" />
          </mxGeometry>
        </mxCell>
        <mxCell id="u8-QzK9I8CVxJScZZYZj-55" style="shape=partialRectangle;html=1;whiteSpace=wrap;connectable=0;strokeColor=inherit;overflow=hidden;fillColor=none;top=0;left=0;bottom=0;right=0;pointerEvents=1;fontSize=16;" vertex="1" parent="u8-QzK9I8CVxJScZZYZj-52">
          <mxGeometry x="434" width="177" height="43" as="geometry">
            <mxRectangle width="177" height="43" as="alternateBounds" />
          </mxGeometry>
        </mxCell>
        <mxCell id="u8-QzK9I8CVxJScZZYZj-56" style="shape=partialRectangle;html=1;whiteSpace=wrap;connectable=0;strokeColor=inherit;overflow=hidden;fillColor=none;top=0;left=0;bottom=0;right=0;pointerEvents=1;fontSize=16;" vertex="1" parent="u8-QzK9I8CVxJScZZYZj-52">
          <mxGeometry x="611" width="169" height="43" as="geometry">
            <mxRectangle width="169" height="43" as="alternateBounds" />
          </mxGeometry>
        </mxCell>
        <mxCell id="u8-QzK9I8CVxJScZZYZj-57" style="shape=tableRow;horizontal=0;startSize=0;swimlaneHead=0;swimlaneBody=0;strokeColor=inherit;top=0;left=0;bottom=0;right=0;collapsible=0;dropTarget=0;fillColor=none;points=[[0,0.5],[1,0.5]];portConstraint=eastwest;fontSize=16;" vertex="1" parent="u8-QzK9I8CVxJScZZYZj-16">
          <mxGeometry y="420" width="780" height="43" as="geometry" />
        </mxCell>
        <mxCell id="u8-QzK9I8CVxJScZZYZj-58" style="shape=partialRectangle;html=1;whiteSpace=wrap;connectable=0;overflow=hidden;top=0;left=0;bottom=0;right=0;pointerEvents=1;fontSize=16;strokeWidth=0;fillColor=#f5f5f5;strokeColor=#666666;fontColor=#333333;" vertex="1" parent="u8-QzK9I8CVxJScZZYZj-57">
          <mxGeometry width="294" height="43" as="geometry">
            <mxRectangle width="294" height="43" as="alternateBounds" />
          </mxGeometry>
        </mxCell>
        <mxCell id="u8-QzK9I8CVxJScZZYZj-59" style="shape=partialRectangle;html=1;whiteSpace=wrap;connectable=0;strokeColor=#666666;overflow=hidden;fillColor=#f5f5f5;top=0;left=0;bottom=0;right=0;pointerEvents=1;fontSize=16;fontColor=#333333;" vertex="1" parent="u8-QzK9I8CVxJScZZYZj-57">
          <mxGeometry x="294" width="140" height="43" as="geometry">
            <mxRectangle width="140" height="43" as="alternateBounds" />
          </mxGeometry>
        </mxCell>
        <mxCell id="u8-QzK9I8CVxJScZZYZj-60" style="shape=partialRectangle;html=1;whiteSpace=wrap;connectable=0;strokeColor=#666666;overflow=hidden;fillColor=#f5f5f5;top=0;left=0;bottom=0;right=0;pointerEvents=1;fontSize=16;fontColor=#333333;" vertex="1" parent="u8-QzK9I8CVxJScZZYZj-57">
          <mxGeometry x="434" width="177" height="43" as="geometry">
            <mxRectangle width="177" height="43" as="alternateBounds" />
          </mxGeometry>
        </mxCell>
        <mxCell id="u8-QzK9I8CVxJScZZYZj-61" style="shape=partialRectangle;html=1;whiteSpace=wrap;connectable=0;strokeColor=#666666;overflow=hidden;fillColor=#f5f5f5;top=0;left=0;bottom=0;right=0;pointerEvents=1;fontSize=16;fontColor=#333333;" vertex="1" parent="u8-QzK9I8CVxJScZZYZj-57">
          <mxGeometry x="611" width="169" height="43" as="geometry">
            <mxRectangle width="169" height="43" as="alternateBounds" />
          </mxGeometry>
        </mxCell>
        <mxCell id="u8-QzK9I8CVxJScZZYZj-62" style="shape=tableRow;horizontal=0;startSize=0;swimlaneHead=0;swimlaneBody=0;strokeColor=inherit;top=0;left=0;bottom=0;right=0;collapsible=0;dropTarget=0;fillColor=none;points=[[0,0.5],[1,0.5]];portConstraint=eastwest;fontSize=16;" vertex="1" parent="u8-QzK9I8CVxJScZZYZj-16">
          <mxGeometry y="463" width="780" height="43" as="geometry" />
        </mxCell>
        <mxCell id="u8-QzK9I8CVxJScZZYZj-63" style="shape=partialRectangle;html=1;whiteSpace=wrap;connectable=0;overflow=hidden;top=0;left=0;bottom=0;right=0;pointerEvents=1;fontSize=16;strokeWidth=0;fillColor=none;strokeColor=inherit;" vertex="1" parent="u8-QzK9I8CVxJScZZYZj-62">
          <mxGeometry width="294" height="43" as="geometry">
            <mxRectangle width="294" height="43" as="alternateBounds" />
          </mxGeometry>
        </mxCell>
        <mxCell id="u8-QzK9I8CVxJScZZYZj-64" style="shape=partialRectangle;html=1;whiteSpace=wrap;connectable=0;strokeColor=inherit;overflow=hidden;fillColor=none;top=0;left=0;bottom=0;right=0;pointerEvents=1;fontSize=16;" vertex="1" parent="u8-QzK9I8CVxJScZZYZj-62">
          <mxGeometry x="294" width="140" height="43" as="geometry">
            <mxRectangle width="140" height="43" as="alternateBounds" />
          </mxGeometry>
        </mxCell>
        <mxCell id="u8-QzK9I8CVxJScZZYZj-65" style="shape=partialRectangle;html=1;whiteSpace=wrap;connectable=0;strokeColor=inherit;overflow=hidden;fillColor=none;top=0;left=0;bottom=0;right=0;pointerEvents=1;fontSize=16;" vertex="1" parent="u8-QzK9I8CVxJScZZYZj-62">
          <mxGeometry x="434" width="177" height="43" as="geometry">
            <mxRectangle width="177" height="43" as="alternateBounds" />
          </mxGeometry>
        </mxCell>
        <mxCell id="u8-QzK9I8CVxJScZZYZj-66" style="shape=partialRectangle;html=1;whiteSpace=wrap;connectable=0;strokeColor=inherit;overflow=hidden;fillColor=none;top=0;left=0;bottom=0;right=0;pointerEvents=1;fontSize=16;" vertex="1" parent="u8-QzK9I8CVxJScZZYZj-62">
          <mxGeometry x="611" width="169" height="43" as="geometry">
            <mxRectangle width="169" height="43" as="alternateBounds" />
          </mxGeometry>
        </mxCell>
        <mxCell id="u8-QzK9I8CVxJScZZYZj-67" style="shape=tableRow;horizontal=0;startSize=0;swimlaneHead=0;swimlaneBody=0;strokeColor=inherit;top=0;left=0;bottom=0;right=0;collapsible=0;dropTarget=0;fillColor=none;points=[[0,0.5],[1,0.5]];portConstraint=eastwest;fontSize=16;" vertex="1" parent="u8-QzK9I8CVxJScZZYZj-16">
          <mxGeometry y="506" width="780" height="42" as="geometry" />
        </mxCell>
        <mxCell id="u8-QzK9I8CVxJScZZYZj-68" style="shape=partialRectangle;html=1;whiteSpace=wrap;connectable=0;overflow=hidden;top=0;left=0;bottom=0;right=0;pointerEvents=1;fontSize=16;strokeWidth=0;fillColor=#f5f5f5;strokeColor=#666666;fontColor=#333333;" vertex="1" parent="u8-QzK9I8CVxJScZZYZj-67">
          <mxGeometry width="294" height="42" as="geometry">
            <mxRectangle width="294" height="42" as="alternateBounds" />
          </mxGeometry>
        </mxCell>
        <mxCell id="u8-QzK9I8CVxJScZZYZj-69" value="" style="shape=partialRectangle;html=1;whiteSpace=wrap;connectable=0;strokeColor=#666666;overflow=hidden;fillColor=#f5f5f5;top=0;left=0;bottom=0;right=0;pointerEvents=1;fontSize=16;fontColor=#333333;" vertex="1" parent="u8-QzK9I8CVxJScZZYZj-67">
          <mxGeometry x="294" width="140" height="42" as="geometry">
            <mxRectangle width="140" height="42" as="alternateBounds" />
          </mxGeometry>
        </mxCell>
        <mxCell id="u8-QzK9I8CVxJScZZYZj-70" style="shape=partialRectangle;html=1;whiteSpace=wrap;connectable=0;strokeColor=#666666;overflow=hidden;fillColor=#f5f5f5;top=0;left=0;bottom=0;right=0;pointerEvents=1;fontSize=16;fontColor=#333333;" vertex="1" parent="u8-QzK9I8CVxJScZZYZj-67">
          <mxGeometry x="434" width="177" height="42" as="geometry">
            <mxRectangle width="177" height="42" as="alternateBounds" />
          </mxGeometry>
        </mxCell>
        <mxCell id="u8-QzK9I8CVxJScZZYZj-71" style="shape=partialRectangle;html=1;whiteSpace=wrap;connectable=0;strokeColor=#666666;overflow=hidden;fillColor=#f5f5f5;top=0;left=0;bottom=0;right=0;pointerEvents=1;fontSize=16;fontColor=#333333;" vertex="1" parent="u8-QzK9I8CVxJScZZYZj-67">
          <mxGeometry x="611" width="169" height="42" as="geometry">
            <mxRectangle width="169" height="42" as="alternateBounds" />
          </mxGeometry>
        </mxCell>
      </root>
    </mxGraphModel>
  </diagram>
</mxfile>
